<svg xmlns="http://www.w3.org/2000/svg" width="26" height="24" viewBox="0 0 26 24"><g><g><path fill="#c3cbce" d="M23.339 20.415zm-6.282-2.642c-1.352 0-2.55.492-3.548 1.429V4.61c.246-.507 1.306-2.227 4.178-2.719.23-.03.46-.061.69-.061 2.428 0 4.394 2.18 4.962 2.887v15.697c-1.536-1.152-3.963-2.642-6.282-2.642zm-8.939.016c-2.32 0-4.761 1.49-6.282 2.641V4.795c1.874-2.227 3.778-3.21 5.652-2.903 2.888.476 3.932 2.227 4.178 2.719v14.606c-.983-.937-2.196-1.428-3.548-1.428zm15.098-15.82C21.373.418 19.33-.243 17.379.079c-2.518.415-3.993 1.629-4.792 2.612C11.773 1.708 10.3.494 7.795.08a5.303 5.303 0 0 0-.983-.077C4.57.003 2.42 1.232.392 3.658l-.015.016a.865.865 0 0 0-.322.445.88.88 0 0 0-.047.43v17.847c0 .369.216.707.553.845a.921.921 0 0 0 .999-.184c.03-.046 3.61-3.425 6.558-3.425 2.626 0 3.548 2.903 3.579 3.025 0 .016.015.016.015.031 0 .016.015.046.03.062l.047.092c.015.015.015.03.03.046.016.03.047.061.062.092.015.015.015.03.03.03l.078.078.03.03c.031.031.077.062.108.077 0 0 .015 0 .015.015a.925.925 0 0 0 .446.123h.122c.016 0 .031 0 .047-.015.015 0 .03 0 .046-.015.03-.016.076-.016.107-.031.015 0 .03-.015.03-.015.032-.016.078-.031.108-.062.016 0 .016-.015.031-.015.03-.016.061-.046.092-.077l.03-.03.078-.078c.015-.015.015-.03.03-.046.016-.03.047-.061.062-.092.015-.015.015-.046.03-.061.016-.031.031-.062.031-.092 0-.016.016-.016.016-.031.03-.123.952-3.026 3.578-3.026 2.95 0 6.543 3.38 6.574 3.425a.896.896 0 0 0 .998.184.908.908 0 0 0 .553-.844V4.642c.016-.062.016-.139.016-.2 0-.307-.077-.476-.66-1.152-.247-.338-.707-.83-1.291-1.321z"/></g></g></svg>