<svg xmlns="http://www.w3.org/2000/svg" width="30" height="29" viewBox="0 0 30 29"><g><g><path fill="#f56a2e" d="M22.926 28.528l-8.039-4.86-8.039 4.86c-.344.206-.79.19-1.134-.051a1.049 1.049 0 0 1-.395-1.065l2.13-9.138L.355 12.14c-.31-.275-.429-.704-.31-1.099.122-.395.481-.67.894-.705l9.362-.79L13.943.89c.154-.395.532-.635.944-.635.412 0 .79.257.945.635l3.641 8.657 9.362.79c.412.035.773.31.893.722.12.395 0 .825-.309 1.099l-7.094 6.133 2.13 9.138a.997.997 0 0 1-.395 1.065 1.08 1.08 0 0 1-.601.189c-.19 0-.361-.051-.533-.155z"/></g></g></svg>