<svg xmlns="http://www.w3.org/2000/svg" width="52" height="65" viewBox="0 0 52 65"><g><g><g><g><path fill="#46d444" d="M14.417 15.424a5.578 5.578 0 1 1 11.156 0 5.578 5.578 0 0 1-11.156 0z"/></g><g><path fill="#46d444" d="M50.832 50.526c-2.89-5.068-7.222-8.526-12.54-10.705-.33-6.596-3.536-12.806-8.682-16.996-2.613-2.13-6.22-2.533-8.766.047-.157.157-.301.33-.437.506-5.25-2.99-11.03-5.23-16.368-7.041-4.048-1.374-5.772 5.014-1.757 6.376 6.042 2.049 12.683 4.704 18.212 8.554.126.128.255.254.397.37 3.168 2.58 5.136 5.645 5.027 9.796-.018.677.06 1.291.207 1.853a48.017 48.017 0 0 1-1.476 6.337c-1.955-2.02-3.775-4.156-5.289-6.557-2.835-4.494-9.988-.35-7.136 4.17 3.039 4.82 7.002 8.813 11.17 12.649 1.751 1.614 5.402 1.738 6.49-.836 1.634-3.869 2.937-7.766 3.816-11.785.267-.066.528-.154.785-.25.28.19.588.355.933.488a15.665 15.665 0 0 1 6.612 4.774c-1.904 1.986-3.991 3.755-6.498 5.03-4.75 2.419-.566 9.548 4.171 7.134 4.137-2.104 7.524-5.38 10.478-8.91 1.222-1.45 1.632-3.278.65-5.004z"/></g><g><path fill="#46d444" d="M16.517 9c.778-.289 1.617-.866 2.494-.866 1.977 0 3.766.798 5.072 2.085-.85-2.355-1.677-4.72-2.45-7.102-1.309-4.039-7.693-2.31-6.376 1.758.403 1.242.834 2.889 1.26 4.124z"/></g></g></g></g></svg>