<svg xmlns="http://www.w3.org/2000/svg" width="26" height="22" viewBox="0 0 26 22"><g><g><g><path fill="#fff" d="M9.39 2.762a.89.89 0 0 0-.286.662c0 .226.075.436.24.617l5.268 5.733H.902a.906.906 0 0 0-.902.903c0 .497.406.903.903.903h13.754L9.33 17.313c-.346.361-.316.933.045 1.28.361.345.933.315 1.28-.046l6.696-7.223a.92.92 0 0 0 .195-.331c.03-.105.06-.21.06-.316a.913.913 0 0 0-.406-.752l-6.53-7.118c-.347-.361-.919-.391-1.28-.045z"/></g><g><path fill="#fff" d="M15.282 20.308c0 .496.406.903.903.903h8.126a.906.906 0 0 0 .902-.903V.896a.906.906 0 0 0-.902-.903h-8.126a.906.906 0 0 0-.903.903c0 .496.406.903.903.903h7.223v17.606h-7.223a.906.906 0 0 0-.903.903z"/></g></g></g></svg>