<svg xmlns="http://www.w3.org/2000/svg" width="166" height="168" viewBox="0 0 166 168"><g><g><g><g><path fill="#f1f2f2" d="M72.915 146.554c-4.658.017-9.316.154-13.966.789-1.753.239-3.47.765-5.226.978-3.51.424-6.957 1.215-10.48 1.58-2.836.293-5.684.467-8.512.84-2.652.35-5.587.269-8.219-.309-1.948-.427-3.904-.668-5.82-1.355-2.142-.768-4.47-1.317-6.702-1.297-3.183.028-6.283.031-9.329 1.387-1.07.476-2.378 1.259-3.19 2.258-1.86 2.287-2.11 7.994-.255 10.367 3.126 3.992 9.798 5.559 14.18 5.633 4.802.08 9.467-.357 14.276-.614 4.468-.239 8.925-.579 13.4-.567 9.142.025 18.285 0 27.41-.75 8.572-.703 17.167-.461 25.759-.461 8.81 0 17.56.085 26.308 1.521 3.811.626 7.694.845 11.524 1.284 3.43.393 6.727-.008 10.143-.37a20.808 20.808 0 0 0 8.326-2.738c2.063-1.21 5.741-4.969 6.374-7.857 1.773-8.096-24.998-7.901-29.108-7.883-4.599.02-9.233.206-13.828-.009-1.933-.09-3.837-.554-5.724-1.062-1.878-.506-3.771-.377-5.677-.59-7.945-.887-15.909-.757-23.88-.757-2.594 0-5.189-.028-7.784-.018z"/></g></g><g><g><g><path fill="#474ebb" d="M85.23 109.968c3.582 2.497 28.07 34.967 28.07 34.967l-14.035 10.782-58.07-12.096v-10.778l22.263-1.738s-16.223-2.371-20.634-13.14c-4.41-10.766 42.407-7.997 42.407-7.997z"/></g></g><g><g><path fill="#3b455a" d="M34.175 137.422c-1.22 3.247-2.473 7.554-1.486 11.172 1.094 4.008 7.345 6.804 9.045 1.778.328-.97.242-2.15-.48-2.874-1.539-1.54-2.827-3.233.08-4.263 1.078-.38 2.26-.332 3.37-.603.385-.094.779-.238 1.038-.539.326-.38.368-.92.384-1.42a35.094 35.094 0 0 0-.288-5.702c-.077-.58-5.551-1.053-6.12-.993-2.065.22-4.755 1.35-5.543 3.444z"/></g></g><g><g><path fill="#474ebb" d="M95.23 129.337l21.406 12.148 5.64-4.591v-5.342L95.23 109.968l-16.31 17.676z"/></g></g></g><g><g><g><g><path fill="#7fc5a3" d="M66.812 40.203c.616-.382 1.26-.717 1.939-.985 11.27-4.45 19.526.573 23.16 11.465 8.143 24.418 9.331 46.76 3.775 71.447-12.68.742-27.766 1.297-40.426.257-4.497-.37-9.42-1.064-12.436-4.42-1.344-1.497-2.163-3.388-2.836-5.284-4.293-12.091-3.409-25.676 1.072-37.7 4.48-12.024 12.369-22.57 21.652-31.428 1.277-1.219 2.608-2.425 4.1-3.352z"/></g></g><g><g><g><g><path fill="#efbfa5" d="M93.394 15.674c-5.865 1.513-12.069-2.4-17.735-.125-3.684 1.48-6.218 5.42-6.857 9.46-.299 1.882-.227 3.862.54 5.541.5 1.09 1.27 2.014 2.14 2.802a12.289 12.289 0 0 0 3.971 2.4c.118.045-1.852 3.515-2.044 3.816.903.568.486 2.397 1.318 3.327.86.961 2.38 1.188 3.655.867 1.275-.32 2.358-1.09 3.386-1.865.932-.703.442-5.455 1.402-5.684a12.9 12.9 0 0 0 2.392-.817c4.68-2.15 8.12-7.171 8.519-12.429.187-2.462-.242-4.897-.687-7.293z"/></g></g></g><g><g><path fill="#3b455a" d="M79.36 15.69c.225-.01.449-.017.672-.019 3.23-.033 6.433.674 9.34 1.993 1.074.487 2.128 1.072 2.91 1.95 1.16 1.297 1.607 3.126 1.55 4.897-.057 1.77-.575 3.506-1.154 5.195.738.036 1.434-.368 2.055-.79 1.826-1.243 3.81-2.87 4.93-4.817 2.033-3.534 2.122-6.05 5.585-8.58 2.872-2.1 6.527-.844 8.838-4.402 1.89-2.912.775-7.64-2.567-8.58a4.688 4.688 0 0 0-4.345 1.028c-1.235 1.126-2.58 3.095-4.026 2.26-.579-.334-.833-1.018-1.13-1.615C99.545-.742 94.266.12 90.045 1.966c-2.38 1.041-4.692 2.444-7.253 2.712-2.053.215-4.093-.324-6.152-.264-3.436.1-6.79 1.952-8.922 4.722-2.39 3.103-3.617 7.57-2.007 11.113.807 1.777 1.32 3.645 1.85 5.52.183.652 1.62 3.301 2.175 1.179.432-1.648.327-3.386.77-5.031 1.077-4.01 5.004-6.036 8.854-6.227z"/></g></g></g></g></g><g><g><g><g><g><g><path fill="#d34e4e" d="M139.267 53.206c-8.587-.75-19.42 3.857-22.037 11.296-2.542-7.463-15.699-12.109-24.293-11.438-22.68 1.771-30.482 27.416-20.958 44.73 5.126 9.32 12.519 17.48 20.592 24.815 6.761 6.142 24.215 19.184 24.268 19.14.053.045 17.638-12.835 24.46-18.915 8.148-7.26 15.623-15.352 20.843-24.622 9.7-17.226-.215-43.025-22.875-45.006z"/></g></g></g><g opacity=".12"><g opacity=".12"><g opacity=".12"><path fill="#000100" d="M157.385 100.026c-5.685 6.907-12.26 13.386-19.391 18.941-6.896 5.373-14.968 10.044-23.834 11.577-4.259.735-8.424.612-12.362-.328 7.201 5.702 15.031 11.535 15.067 11.506.053.044 17.637-12.836 24.46-18.915 8.148-7.26 15.623-15.353 20.843-24.623 1.69-3 2.782-6.26 3.317-9.609-2.372 4.013-5.12 7.83-8.1 11.45z"/></g></g></g><g><path fill="none" stroke="#fff" stroke-linecap="round" stroke-miterlimit="50" stroke-width="3" d="M98.5 97.5h36.405"/></g><g><path fill="none" stroke="#fff" stroke-linecap="round" stroke-miterlimit="50" stroke-width="3" d="M117.5 80.5v33.306"/></g></g></g></g><g><g><g><path fill="#efbfa5" d="M65.623 93.891c1.395 3.745 3.422 7.058 6.546 9.325l7.774 5.637c.709.514 1.435 1.047 1.899 1.79.655 1.05.69 2.355.868 3.58.388 2.662 1.73 5.38 4.158 6.536 2.43 1.157 5.936.007 6.52-2.62-1.12-1.498-2.175-3.082-3.373-4.518-.647-.775-2.079-2.646.239-2.029.358.096.723.223 1.09.173.57-.078 1.007-.577 1.188-1.121.175-.53.195-1.125.082-1.661-5.271-.098-11.077-5.212-13.935-9.29-7.644-10.907-4.577-24.748-7.138-36.997-.517-2.471-1.477-4.985-3.424-6.591-1.947-1.607-5.085-1.967-6.926-.24-1.975 1.853-1.688 5.009-1.25 7.68l1.888 11.503c.934 5.687 1.549 12.823 3.794 18.843z"/></g></g><g><g><path fill="#7fc5a3" d="M57.139 56.52a69.476 69.476 0 0 0-.197 15.645 162.933 162.933 0 0 1 18.859-1.71 118.337 118.337 0 0 0-2.88-16.294c-.98-3.922-4.397-6.004-8.461-5.841-4.477.179-6.825 4.266-7.321 8.2z"/></g></g></g><g><g><path fill="#efbfa5" d="M104.256 54.915c.328-.035.697-.058.95.153.254.21.3.578.3.907a6.355 6.355 0 0 1-1.143 3.65c-.173.246-.374.526-.303.818.075.306.409.46.702.572l2.308.88c.155.06.32.12.483.09.21-.037.364-.21.5-.374 1.07-1.276 2.167-2.605 2.616-4.208.448-1.603.063-3.567-1.34-4.465-2.285-1.464-9.468-2.413-9.652 1.71 1.355.721 3.11.415 4.58.267z"/></g></g></g></g></svg>