<svg xmlns="http://www.w3.org/2000/svg" width="265" height="198" viewBox="0 0 265 198"><g><g><g><g><path fill="#f1f2f2" d="M120.66 176.554c-7.68.017-15.36.154-23.027.789-2.89.239-5.72.765-8.618.978-5.787.424-11.47 1.215-17.278 1.58-4.677.293-9.374.467-14.037.84-4.372.35-9.212.269-13.551-.309-3.212-.427-6.438-.668-9.596-1.355-3.533-.768-7.37-1.317-11.051-1.297-5.249.028-10.36.031-15.383 1.387-1.763.476-3.921 1.259-5.26 2.258-3.065 2.287-3.48 7.994-.42 10.367 5.155 3.992 16.156 5.559 23.382 5.633 7.917.08 15.608-.357 23.537-.614 7.368-.239 14.717-.579 22.097-.567 15.073.025 30.147 0 45.193-.75 14.136-.703 28.307-.461 42.473-.461 14.527 0 28.956.085 43.378 1.521 6.285.626 12.687.846 19.002 1.284 5.656.393 11.092-.008 16.725-.37 4.73-.305 9.43-1.21 13.728-2.738 3.402-1.21 9.466-4.969 10.51-7.857 2.924-8.096-41.218-7.901-47.996-7.883-7.582.02-15.224.206-22.8-.009-3.186-.09-6.326-.554-9.437-1.062-3.098-.506-6.219-.377-9.36-.59-13.102-.887-26.232-.757-39.375-.757-4.277 0-8.556-.028-12.835-.018z"/></g></g><g><g><g><path fill="#3b455a" d="M44.886 137.003c-.293-.429-.634-.855-1.106-1.056-.295-.125-.619-.153-.937-.17-1.574-.085-3.006.29-4.548.4-1.216.086-2.047-.07-2.752 1.21-.381.693-.514 1.491-.639 2.273-1.445 9.05-2.628 18.141-3.81 27.23l-.847 6.512-.332 2.552-1.472 11.31c-.09.689-.42 1.265-.648 1.888h-.014l-4.044 2.889-.738 1.317 1.764.852 4.09-.756 2.821-1.915.04-1.716c.007-.63.07-1.229.214-1.845.282-1.202.726-2.374 1.116-3.544.587-1.997 1.197-3.987 1.791-5.982a1350.83 1350.83 0 0 0 3.807-13.07c1.286-4.488 2.733-8.931 4.068-13.404 1.216-4.073 4.795-11.133 2.176-14.975z"/></g></g><g><g><path fill="#3b455a" d="M60.294 139.668c.85.194 1.66.577 2.293 1.174 2.016 1.903.775 4.743.427 7.077a75.093 75.093 0 0 0-.77 9.066 666.049 666.049 0 0 1-.723 17.893c-.256 4.766-1.813 10.918-.627 15.565l1.706 2.959-.766.94-2.854-.244c-.384-.033-1.672-2.273-1.778-2.712-.379-1.567.008-3.125-.204-4.68-.17-1.257-.653-2.547-.883-3.837-.36-2.02-.71-4.041-1.044-6.065-.655-3.97-1.252-7.95-1.758-11.943l-1.929-15.24c-.275-2.177-.82-3.778.5-5.62 1.204-1.677 2.8-3.348 4.771-4.08a6.491 6.491 0 0 1 3.068-.354c.191.025.382.058.571.101z"/></g></g><g><g><path fill="#c5ccd3" d="M64.207 149.835c-1.485.023-2.97.007-4.45-.122-3.328-.29-6.58-1.014-9.94-1.006-.356-1.855-.928-3.788-1.09-5.655-.185-2.102.222-4.304.314-6.407.216-4.983.573-9.96 1.068-14.924 4.43-.172 8.83.32 13.239.298 1.12-.005 2.661-.307 3.184.72.756 1.49.438 3.484.629 5.097.292 2.462.518 4.92.584 7.4a70.852 70.852 0 0 1-1.118 14.537c-.806.024-1.613.049-2.42.062z"/></g></g><g><g><path fill="#c5ccd3" d="M33.469 148.807a89.554 89.554 0 0 1-3.073-.368c-.356-.048-.734-.11-1.003-.347-.5-.44-.39-1.232-.24-1.88 1.438-6.205 2.846-12.418 4.315-18.616.234-.987 2.506-10.976 3.09-10.982l12.409.128c.375.004.782.02 1.07.26.285.238.373.632.442.997a144.136 144.136 0 0 1 2.14 16.73c.329 4.76-2.31 9.133-4.647 13.168-.237.41-.497.835-.91 1.068-.37.209-.814.232-1.24.248-4.12.148-8.251.012-12.353-.406z"/></g></g><g><g><g><g><path fill="#efbfa5" d="M103.517 68.081a14.085 14.085 0 0 1-.092-.668c-.525-4.412-.148-8.52.055-12.884.163-3.522.623-7.599 3.396-10.11.425-.385 2.504-2.143.568-2.31-.473-.042-.935.373-.944.847a12.831 12.831 0 0 0 1.448-3.685c.043-.192.08-.4 0-.58-.062-.14-.188-.243-.308-.34l-1.391-1.107c-.065-.052-.135-.106-.217-.108-.097-.004-.18.063-.254.127l-2.48 2.147c-1.399 1.213-.88 3.177-1.146 4.772-.297 1.786-.966 2.58-1.755 4.08-2.224 4.221-3.54 8.98-4.558 13.641-.416 1.906-.762 3.863-.524 5.799.267 2.16 1.247 4.166 2.342 6.047a39.057 39.057 0 0 0 5.013 7.146 23.856 23.856 0 0 0 3.406 3.163c1.226.934 1.652 1.832 2.409 3.209.097.176.2.358.368.469.476.313 1.079-.128 1.47-.543a61.015 61.015 0 0 0 6.273-7.892c.28-.42.56-.857.655-1.353.19-1.006-.454-2.019-1.301-2.595-.847-.577-1.87-.819-2.856-1.1a30.359 30.359 0 0 1-7.419-3.246c-.61-.371-1.223-.78-1.615-1.376-.304-.463-.45-1-.543-1.55z"/></g></g></g><g><g><g><path fill="#efbfa5" d="M143.097 71.892c3.034-1.648 2.862-5.157 3.565-9.396.71-4.278 1.954-10.108-.908-13.893-.346-.457-2.06-2.571-.127-2.376.472.048.848.542.769 1.01a12.826 12.826 0 0 1-.736-3.891c-.006-.197-.004-.408.108-.57.088-.127.23-.204.367-.276l1.573-.83c.073-.038.152-.077.233-.065.096.015.166.096.226.173l2.036 2.572c1.148 1.452.272 3.285.236 4.901-.041 1.81.468 2.716.964 4.336 1.398 4.562 1.803 9.483 1.935 14.252.054 1.95.029 3.937-.567 5.794-.664 2.073-2 3.861-3.428 5.505-3.054 3.519-7.362 7.784-11.923 9.248-8.197 2.63-8.15-13.88-.66-15.324.907-.175 1.84-.149 2.762-.23 1.532-.137 2.69-.46 3.575-.94z"/></g></g></g><g><g><g><g><g><path fill="#efbfa5" d="M131.935 155.652l-.542 12.023c-.286 3.327-.19 6.668-.192 10.002-.001 3.097-.819 6.238.469 9.188.403.925 1.342 1.61 2.149.62.622-.763.443-2.16.642-3.079 1.491-6.897 3.888-13.566 5.305-20.48 1.484-7.244-1.355-7.226-7.831-8.274z"/></g></g></g><g><g><path fill="#3b455a" d="M130.829 184.752l-.896 1.956 3.594 3.579 3.472.358 1.24-1.768-4.432-4.359z"/></g></g></g><g><g><g><g><path fill="#efbfa5" d="M111.695 155.138l1.258 11.97c.342 5.337 1.661 10.613 2.004 15.95.078 1.227-.114 2.548.303 3.732.407 1.16 1.375 1.28 2.292.588 1.229-.927.842-2.788.93-4.18.59-9.272 2.039-18.345 2.945-27.608.012-.121.017-.261-.07-.346-.072-.069-.18-.076-.28-.077-.906-.011-9.355.23-9.382-.029z"/></g></g></g><g><g><path fill="#3b455a" d="M118.349 185.245l1.063 1.87-3.268 3.88-3.428.659-1.388-1.652 4.033-4.73z"/></g></g></g></g><g><g><path fill="#c4c9ce" d="M142.24 163.535l2.48-16.957c-.69-9.736-4.925-19.584-5.6-29.355-.043-.623-.114-1.308-.568-1.737-.35-.333-.855-.435-1.332-.514-4.534-.756-9.155-.753-13.752-.748-4.48.004-13.28-.951-15.522 3.457-2.306 4.533-1.63 14.723-1.812 19.853-.283 8.027-.349 17.32.506 25.31l17.397-.289 1.463-18.912 2.644 12.33-.112 7.562z"/></g></g><g><g><path fill="#ebb044" d="M136.19 76.708a10.92 10.92 0 0 0-1.014-2.046c-1.909-3.06-7.847-5.175-11.428-4.698-3.093.413-6.131.461-9.042 1.743-2.186.962-4.167 4.087-5.29 6.036-3.861 6.7-2.293 14.896-2.286 22.283.004 3.894-.374 7.81-.533 11.7-.103 2.542-.198 5.085-.213 7.63-.005.903-.442 3.761.226 4.519.587.664 4.328-.024 5.454-.058a248.393 248.393 0 0 1 18.071.093c3.353.14 6.44.83 9.8.07.436-.099.893-.237 1.18-.575.382-.454.336-1.115.27-1.702a349.462 349.462 0 0 0-2.616-18.466c-.48-2.841-1.468-5.916-1.496-8.793-.023-2.428.017-4.852-.149-7.314-.22-3.264.192-7.331-.933-10.422z"/></g></g><g><g><g><g><path fill="#32376b" d="M130.065 53.316c.752 1.318 1.114 2.836 1.18 4.351.019.403.046.869.372 1.106.349.255.042.814.307.473.266-.34 1.167-1.524 1.207-1.954a15.91 15.91 0 0 0-.004-3.03c-.085-.876-.264-1.791-.837-2.46-.34-.395-.793-.673-1.24-.943-.648-.391-1.315-.786-2.059-.925-1.282-.238-2.068.221-.937 1.116.81.64 1.496 1.364 2.01 2.266z"/></g></g><g><g><g><path fill="#efbfa5" d="M122.055 70.509c.008.62-.119 1.263.428 1.744.263.232.619.324.965.38.894.14 1.82.075 2.686-.191.356-.11.71-.259.98-.517.317-.305.333-.593.348-.993.018-.467.112-.943.174-1.417.134-1.037.194-2.082.224-3.127 1.536-.263 3.342-.76 3.868-2.37.165-.506.17-1.057.175-1.597l.049-6.687c.005-.771.007-1.566-.257-2.282-.463-1.255-1.64-2.003-2.795-2.474-2.946-1.202-6.38-1.154-9.099.555-.723.455-1.406 1.04-1.823 1.834-.643 1.225-.562 2.737-.462 4.15l.276 3.913c.106 1.5.332 3.227 1.497 4.02.618.42 1.417.497 1.95 1.042.93.95.488 2.37.762 3.52.039.162.051.328.054.497z"/></g></g></g><g><g><path fill="#3b455a" d="M126.883 64.672c-.8.538-1.682.567-2.574.298-.38-.114-.218-.75.161-.636.74.222 1.437.217 2.103-.231.336-.226.644.345.31.569zm5.56-3.14c-.025-.413-.205-1.624-.827-.863-.162.2-.203.48-.212.746-.01.265.002.538-.082.787-.192.573-.826.834-1.39.824a1.355 1.355 0 0 1-.653-.154c-.192-.11-.345-.285-.495-.456l-1.087-1.247c-.623-.716-1.859-.406-2.699-.297-.967.126-1.935.419-2.725 1.055a8.45 8.45 0 0 0-.236.2c-.19.164-.382.326-.604.434-.747.364-1.672-.016-2.196-.696-.24-.312-.464-.713-.837-.766-.291-.04-.576.169-.725.441-.15.273-.19.599-.21.915-.074 1.152.085 2.339.584 3.36 1.082 2.215 3.175 2.487 5.278 2.437l2.494-.059c1.52-.036 3.126-.099 4.406-.982 1.13-.78 1.8-2.104 2.076-3.492a8.604 8.604 0 0 0 .14-2.187z"/></g></g><g><g><path fill="#3b455a" d="M132.76 49.453c.147-.54.256-1.091.325-1.647a3.26 3.26 0 0 1-1.612.138l-.004-.961c-.002-.267-3.609-.454-3.902-.477-2.744-.226-5.253-.44-7.734 1.033-2.119 1.258-3.478 3.136-3.803 5.58-.31 2.336.454 5.387 1.805 7.326-.008-.622-.366-2.089-.219-2.68.09-.592.294-1.163.577-1.69.563-1.053 1.436-1.94 2.445-2.571 1.608-1.008 3.478-1.541 5.345-1.8 1.711-.24 3.796-.46 5.486-.006.813.218.948.422 1.44-.399.086-.144.774-1.832.707-1.833l-.855-.013z"/></g></g></g></g><g><g><path fill="#ebb044" d="M140.896 69.934c.474-.124.973-.258 1.444-.127.547.153.933.63 1.268 1.088a30.986 30.986 0 0 1 4.883 10.193c.135.502.255 1.05.05 1.528-.162.38-.504.649-.825.91-4.688 3.822-7.611 9.496-12.39 13.203a127.042 127.042 0 0 1-1.92-14.35c-.153-2.007-.264-4.048-.937-5.946-.683-1.923-4.31-4.255-2.411-5.613.7-.5 4.262.11 5.213.042a31.22 31.22 0 0 0 5.625-.928z"/></g></g><g><g><path fill="#ebb044" d="M118.705 71.369c-.07-.214-.165-.426-.32-.589-.332-.349-.859-.408-1.339-.453a45.16 45.16 0 0 1-6.052-.99c-1.167-.274-2.796-1.093-4.224-1.534-.08-.1-.164-.2-.243-.302a24.6 24.6 0 0 1-.288-.379c-.473-.637-1.144-.16-1.772.537-1.066.427-1.656 1.726-2.363 2.593-1.164 1.428-2.847 2.538-4.215 3.77-.28.248-.578.534-.606.907-.024.307.145.592.308.853 3.833 6.16 7.668 12.318 11.501 18.477-.151-.244 4.193-7.205 4.56-8.05.924-2.122 1.314-4.576 2.296-6.632.203-.426 2.215-2.92 1.852-3.942.16-.253.31-.511.445-.778.544-1.074.833-2.343.46-3.488z"/></g></g></g><g><g><g><g><g><g><path fill="#46d444" d="M93.91 21.342l14.44 1.8c.509-.72 1.36-1.144 2.264-1.031l38.11 4.75c.903.113 1.624.733 1.943 1.555l14.438 1.8-1.907 15.312-14.282-1.78c-.462.92-1.43 1.498-2.467 1.369l-38.109-4.75c-1.037-.13-1.833-.927-2.055-1.933l-14.282-1.78z"/></g></g></g><g><g><g><path fill="#46d444" d="M191.268 33.993l-1.416-.651c-.219-.1-.44-.147-.662-.156l1.524-12.24c.461-3.699-2.185-7.073-5.91-7.537l-.842-.105c-3.456-.431-6.624 1.795-7.432 5.071.02-3.375-2.506-6.31-5.961-6.74l-.842-.106c-3.725-.464-7.118 2.158-7.579 5.856l-5.01 40.214c-.46 3.698 2.186 7.072 5.912 7.537l.841.104c3.456.431 6.624-1.794 7.433-5.07-.02 3.374 2.505 6.31 5.96 6.74l.842.105c3.725.464 7.118-2.157 7.579-5.855l1.525-12.241c.216.046.443.055.68.012l1.533-.284c1.115-.206 2.042-1.437 2.232-2.966l1.03-8.264c.19-1.53-.406-2.95-1.437-3.424z"/></g></g><g><g><path fill="#46d444" d="M95.978 2.337l-.842-.105c-3.455-.431-6.624 1.794-7.432 5.071.02-3.375-2.505-6.31-5.961-6.74l-.841-.106c-3.726-.464-7.119 2.157-7.58 5.856l-1.524 12.24a1.732 1.732 0 0 0-.68-.012l-1.534.284c-1.115.206-2.041 1.437-2.232 2.967l-1.03 8.263c-.19 1.53.406 2.95 1.437 3.424l1.417.652c.218.1.44.146.662.155l-1.525 12.24c-.46 3.699 2.186 7.073 5.911 7.537l.841.105c3.456.431 6.625-1.795 7.433-5.071-.02 3.375 2.505 6.31 5.96 6.74l.842.106c3.726.464 7.119-2.157 7.58-5.856l5.009-40.214c.46-3.698-2.186-7.072-5.911-7.536z"/></g></g></g></g></g></g><g><g><g><path fill="#46d444" d="M66.735 80.576c.912 1.981 1.08 4.173 1.381 6.56.522 4.138.78 8.3.838 12.459.068 4.835-.136 9.668-.517 14.485-.191 2.41-.427 4.815-.696 7.216-.14 1.245.41 4.439-.937 5.093-.748.364-1.653.284-2.5.196l-15.323-1.61c-4.298-.45-8.835-.74-12.938-2.18-.218-.076-.444-.165-.597-.339-.166-.189-.221-.448-.266-.696-.686-3.84.299-6.852.958-10.509.777-4.312.884-9.028 1.2-13.406.363-5.014 1.167-11.739 3.068-16.506.855-2.013 2.06-3.882 3.706-5.42 1.96-1.83 4.61-3.396 7.312-3.396 2.545 0 5.167.248 7.425 1.423 2.073 1.077 3.82 2.008 5.61 3.595 1.07.948 1.782 1.96 2.276 3.035z"/></g></g></g><g><g><g><g><path fill="#3b455a" d="M64.661 66.902a20.067 20.067 0 0 1-4.225 3.229 34.144 34.144 0 0 0 3.129-8.79c.048-.233.111-.492.314-.618.188-.118.432-.075.647-.02 3.847.98 2.326 4.007.135 6.2z"/></g></g></g><g><g><path fill="#efbfa5" d="M53.554 70.758a5.799 5.799 0 0 1-.6-.827c-2.323-3.873-2.217-18.402 8.168-16.49 9.429 1.735 3.347 12.865-.62 16.793-.752.745-1.7 1.498-2.82 1.822-.3.087-.21 3.007-.476 3.447-.532.88-1.79 1.14-2.688.73-.778-.355-1.535-1.432-1.706-2.247-.124-.59.96-2.98.742-3.228z"/></g></g><g><g><g><g><path fill="#3b455a" d="M53.44 66.562c-.947.506-2.063-.313-2.706-1.173-2.646-3.533-2.595-8.84.118-12.321 2.27-2.914 7.564-3.308 6.39 1.117-.417 1.57-2.266 3.11-2.855 4.788-.84 2.397-.864 5.08-.946 7.59z"/></g></g></g><g><g><g><path fill="#3b455a" d="M71.408 53.63c2.869 4.387 2.07 10.284 4.309 15.023-4.14-.234-8.152-2.23-10.836-5.39-2.632-3.101-10.12-8.097-6.638-12.175 3.543-4.15 10.652-1.303 13.165 2.541z"/></g></g></g></g></g><g><g><g><g><path fill="#d34e4e" d="M84.198 88.51c-3.562-3.64-7.963-3.712-11.199-3.042-2.34.484-4.778-.015-6.77-1.338-2.77-1.84-6.96-3.467-11.685-1.334-6.335 2.86-8.738 9.622-8.799 16.18-.045 4.853.674 10.015 2.67 14.513 1.933 4.352 6.235 9.39 11.556 8.662 1.622-.222 3.28.081 4.675.938 6.68 4.102 13.514-3.03 17.06-8.013 3.702-5.203 6.883-11.85 6.242-18.405-.301-3.082-1.584-5.948-3.75-8.162z"/></g></g><g><g><path fill="#7fc5a3" d="M68.446 79.655c1-1.668 2.652-2.964 4.27-3.688 1.617-.724 3.217-.945 4.75-1.039 1.359-.083 2.69-.074 3.985.027-.505 1.125-1.203 2.207-1.92 3.266-1.032 1.528-2.13 3.048-3.438 4.349-1.308 1.3-2.855 2.379-4.362 2.766-3.105.798-5.39-2.17-3.285-5.68z"/></g></g></g></g><g><g><g><g><path fill="#efbfa5" d="M24.402 51.928c-.106-.884-.088-1.76-.089-2.685 0-.22 0-.443.07-.65.083-.25.258-.458.43-.659l.749-.874c.155-.182.314-.366.516-.495.52-.33 1.195-.222 1.8-.102.123.024.252.051.35.131.162.134.186.384.112.581-.233.627-.425.778-.425 1.532 0 .641.017 1.293.184 1.916.261-.093.416-.357.605-.592.159-.197.365-.414.616-.38.333.046.435.488.374.82-.122.663-.553 1.221-.843 1.831-.43.907-.525 2.681-1.6 2.878-.654.12-1.468-.041-2.137-.06l-.532-2.183a8.427 8.427 0 0 1-.18-1.01z"/></g></g></g><g><g><g><path fill="#46d444" d="M51.933 72.995a491.496 491.496 0 0 1-18.79-1.34c-.451-.04-.938-.097-1.267-.408-.322-.303-.412-.773-.483-1.21a169.82 169.82 0 0 1-1.735-14.603c-.032-.425-.097-.912-.455-1.144-.239-.155-.543-.148-.828-.137-1.323.056-2.929-.25-3.91.891-.943 1.097-.516 3.032-.545 4.41a150.062 150.062 0 0 1-.761 12.226c-.135 1.3-.387 3.234.465 4.367.749.997 2.39 1.652 3.447 2.345l12.733 8.35c.895.587 1.856 1.194 2.926 1.203 1.716.013 1.722-1.182 2.2-2.319.592-1.408 1.71-2.513 2.593-3.782a34.086 34.086 0 0 0 4.41-8.849z"/></g></g></g></g><g><g><g><path fill="#46d444" d="M78.09 124.316c-.758.015-1.583-.3-1.92-.98-.255-.511-.189-1.12-.078-1.68.182-.926.47-1.83.854-2.691.963-2.158 4-2.89 4.879-.239.78 2.357-1.237 5.54-3.735 5.59z"/></g></g><g><g><path fill="#efbfa5" d="M73.285 120.745c-.35-.502-.69-1.183-.46-1.835.228-.649.923-1.322 1.475-1.701.588-.404 1.076.132 1.377.596.28.431.577.866 1.031 1.113.391-.56-.08-1.136.256-1.704.142-.242.366-.426.597-.576.079-.051.175-.101.25-.067.052.023.08.08.104.132.57 1.221 1.69 1.838 1.98 3.263.31 1.521-.585 2.698-2.128 2.93-1.667.25-3.394-.726-4.324-1.935a5.543 5.543 0 0 1-.158-.215z"/></g></g></g><g><g><g><g><g><g><g><path fill="#8ec3cb" d="M14.346 11.98l3.944 36.763c.122 1.128 5.353 2.034 11.687 2.045 6.334.01 11.57-.877 11.694-2.005l4.072-36.75z"/></g></g><g opacity=".64"><g opacity=".64"><path fill="#fff" d="M42.963 19.078c.042-.03.064-.062.064-.093.001-.511-5.8-.936-12.957-.948-7.157-.012-12.959.392-12.96.904 0 .031.022.062.064.093h-.103l3.27 28.798c.1.884 4.43 1.594 9.675 1.603 5.244.01 9.578-.686 9.681-1.57l3.369-28.787z"/></g></g><g><g><path fill="#7bb1b7" d="M45.697 11.916c-.001.652-7.01 1.17-15.654 1.155-8.645-.015-15.652-.556-15.65-1.209 0-.653 7.01-1.17 15.654-1.156 8.644.015 15.65.556 15.65 1.21z"/></g></g><g opacity=".51"><g opacity=".51"><path fill="#fff" d="M30.031 19.727c-7.198-.012-13.033-.398-13.032-.861 0-.464 5.837-.83 13.035-.817 7.198.012 13.033.398 13.032.861 0 .464-5.837.83-13.035.817z"/></g></g></g></g></g><g><g><g><path fill="#fff" d="M28.097 32.582c.066-1.017.11-2.035.131-3.054.012-.567-.875-.595-.887-.027-.02.931-.059 1.861-.115 2.79l-2.196-.066.034-1.984c.01-.567-.877-.595-.887-.027l-.09 5.143c-.01.568.877.596.888.027l.04-2.277 2.152.064c-.067.907-.15 1.813-.252 2.717-.064.565.824.588.887.027.11-.982.2-1.965.269-2.95.06-.116.07-.26.026-.383z"/></g></g><g><g><path fill="#fff" d="M30.167 39.082c-.071-.006-.645-.048-.86-.072.118-.075.324-.316.322-.315.083-.09.171-.172.252-.263.337-.381.588-.853.448-1.37-.25-.925-1.558-.969-1.784-.007-.13.55.718.813.848.26.155-.001.163.089.024.27a1.542 1.542 0 0 1-.269.338c-.123.133-.255.258-.371.398-.211.257-.42.577-.373.925.104.778 1.171.667 1.735.718.57.051.595-.83.028-.882z"/></g></g><g><g><path fill="#fff" d="M35.278 33.457c-.136.874-.773 1.898-1.8 1.775-1.013-.121-1.242-1.41-1.189-2.225.026-.407.126-.81.288-1.185.122-.284.394-.849.734-1.083a.46.46 0 0 0 .471.235c.479-.064 1.04.696 1.252 1.042.269.437.321.941.244 1.44zm-1.228-3.334c-.02-.195-.156-.372-.412-.372-1.488 0-2.218 2.2-2.243 3.397-.028 1.34.646 2.97 2.212 2.971 1.54.002 2.465-1.443 2.58-2.828.1-1.207-.818-2.964-2.137-3.168z"/></g></g></g></g></g><g><g><g><g><g><path fill="#8ec3cb" d="M230.254 13.981c-.74-.782-2.677-1.033-2.677-1.033l-8.776-.205c-.93-.022-1.867-.376-2.656-.987a.732.732 0 0 0 .01-1.014.734.734 0 0 0-1.037-.025l-.022.02-.885-.933-5.554 5.264.885.934-.198.187a.734.734 0 0 0-.03 1.038.734.734 0 0 0 1.037.025l.162-.154c.618.865.938 1.886.882 2.87l-.499 8.789s.147 1.947.888 2.729l3.794 4.002s7.511.198 7.494 7.824l22.64 23.972s12.862-2.406 18.47-17.505l-22.724-23.892c-7.334-.347-7.41-7.903-7.41-7.903z"/></g></g><g><g><path fill="#ebb044" d="M253.13 38.118l-11.448-12.08-4.104 4.57c-3.373 3.491-6.034 5.907-9.836 9.323l-4.53 3.613 11.448 12.079-.058.055c12.685-5.698 18.586-17.615 18.586-17.615z"/></g></g><g><g><path fill="#fff" d="M234.346 37.588l3.33-3.155-.136 5.732 4.024-1.629-.86 9.164-1.855-5.361-3.011 1.904z"/></g></g><g><g><path fill="#3b455a" d="M205.467 13.783c-.64-.675-.605-1.99.07-2.63l4.757-4.507c.674-.64 1.99-.605 2.629.07l1.52 1.604c.64.675.604 1.99-.07 2.63l-4.757 4.507c-.675.64-1.99.604-2.63-.07z"/></g></g><g opacity=".15"><g opacity=".15"><path fill="#080a0a" d="M210.563 17.17l5.562-5.39s.38.259.683.41z"/></g></g><g opacity=".06"><g opacity=".06"><g opacity=".06"><path fill="#080a0a" d="M234.152 18.094l-.053-.056-18.47 17.505.053.055s7.512.198 7.494 7.824l.078.082 8.513-7.326a23.22 23.22 0 0 0 1.567-1.481l8.306-8.618-.078-.082c-7.333-.347-7.41-7.903-7.41-7.903z"/></g></g></g></g><g><g><path fill="#a4a6a9" d="M253.19 38.065l-.003-.005z"/></g></g></g></g><g><g><g><g><path fill="#d8a38b" d="M204.028 114.207c-.044-.334-.032-.366-.317-.55-.317-.203-.662-.375-.995-.549-1.233-1.324-1.77-2.664-2.23-4.45-.321-1.253-.947-2.483-1.41-3.688-.924-2.41-1.828-4.827-2.71-7.254-.135-.37-.271-.767-.188-1.153.064-.294.247-.54.429-.774a32.96 32.96 0 0 1 2.795-3.156c.89-.884 1.658-1.344 2.696-1.918 1.101-.608.693-1.794.292-2.813-.163-.413-1.862-3.97-1.687-4.148-3.402 3.441-6.787 6.901-10.154 10.38-.22.228-.448.47-.533.781-.11.402.04.826.192 1.213a85.703 85.703 0 0 0 4.415 9.499 89.146 89.146 0 0 0 2.606 4.508c.531.86 2.323 2.61 1.93 3.73-.044.126-.116.24-.143.374-.03.15-.002.314.031.472.12.578.288 1.165.53 1.712.22.5.612.56 1.052.758.46.207.756.656 1.19.901.438.247.82.075 1.221-.194a13.757 13.757 0 0 0 .866-.633.608.608 0 0 0 .166-.173.627.627 0 0 0 .06-.231c.11-.905.013-1.75-.104-2.644z"/></g></g><g><g><path fill="#d8a38b" d="M231.285 71.363c.64-.304 1.303-.639 1.706-1.22.272-.392.401-.862.526-1.322l2.675-9.9c-.885-.96-.915-3.061.81-1.902.154.103.321.233.502.194.135-.029.23-.145.316-.254l1.048-1.347c.12-.155.251-.318.436-.385.14-.05.295-.039.444-.02a5.888 5.888 0 0 1 3.098 1.363 14.123 14.123 0 0 1-2.127 2.45c-.3.274-.615.538-.865.859-1.043 1.335-.827 3.926-1.009 5.539l-.743 6.602c-.036.32-.075.652-.232.934-.192.342-.533.57-.862.782a93.917 93.917 0 0 1-17.768 8.947c-.529-1.48-1.416-3.518-1.372-5.109.04-1.502 2.233-1.626 3.462-2.067a106.42 106.42 0 0 0 9.955-4.144z"/></g></g><g><g><path fill="#d8a38b" d="M207.991 77.897c-2.315.763-3.48 2.105-3.549 5.266-.083 3.829-.164 7.681.42 11.466.33 2.128.866 4.22 1.18 6.35.635 4.333.317 8.777-.754 13.015-.36 1.427-1.824 3.775-.737 5.028 1.04 1.2 3.033.44 4.354.376l13.105-.633c2.674-.13 8.18-.267 7.492-4.4-.318-1.91-2.172-3.916-2.88-5.763-.783-2.044-1.307-4.248-1.203-6.449.153-3.228-.39-6.373-.646-9.632-.352-4.478-.503-9.113-2.393-13.272-1.588-3.494-9.503-2.405-12.536-1.815-.683.132-1.3.281-1.853.463z"/></g></g><g><g><g><path fill="#d8a38b" d="M230.611 183.846c.842.113 1.636-.131 2.462-.168a42.202 42.202 0 0 0-.399-8.597c-1.37 1.33-2.388.434-2.525 3.096-.044.861.717 4.37.462 5.669z"/></g></g><g><g><path fill="#3b455a" d="M233.356 182.25c.985-.278 1.046 2.033 1.017 2.574-.018.324-.079.653-.017.972.067.352.275.657.479.952l1.277 1.851c.192.277.387.561.477.886.225.804-.297 1.705-1.067 2.03-2.67 1.13-4.813-2.188-5.231-4.31-.064-.326-.105-.655-.145-.984-.084-.68-.493-2.18-.182-2.819.363-.744 1.268-.126 1.905-.373.591-.229 1.088-.665 1.487-.778z"/></g></g></g><g><g><g><path fill="#d8a38b" d="M212.953 184.075c-.811.251-1.635.142-2.455.243a42.198 42.198 0 0 1-1.033-8.544c1.572 1.083 2.427.031 3.003 2.634.187.842.019 4.429.485 5.667z"/></g></g><g><g><path fill="#3b455a" d="M209.727 183.426c-.109 1.57-1.459 3.176-2.238 4.542-.092.16-.186.327-.201.512-.024.273.127.528.273.761.202.324.422.665.767.827.339.16.735.118 1.105.063.62-.093 1.237-.214 1.846-.363.152-.037.307-.078.435-.167.151-.107.249-.272.342-.432.48-.82.879-1.398.92-2.345.043-.979-.012-1.999.232-2.955.12-.463.278-1.056-.107-1.34-.297-.221-.885.015-1.227.047-.604.057-1.154-.017-1.725.26a.797.797 0 0 0-.307.23.666.666 0 0 0-.115.36z"/></g></g></g><g><g><g><g><g><g><path fill="#d8a38b" d="M211.38 77.445c.056.099.13.193.227.281.386.349.906.533 1.417.584.673.067 1.349-.074 2.007-.229.89-.21.836-.734.93-1.554.053-.448.078-.898.092-1.349.008-.247-.126-1.125.024-1.304.101-.122.536-.101.722-.208.295-.17.534-.471.703-.76.272-.467.41-.997.545-1.52l.704-2.729c.24-.929.481-1.866.53-2.825.073-1.445-.247-3.466-1.379-4.472-1.032-.917-2.492-1.19-3.825-1.303-1.765-.148-3.571.251-5.047 1.249-.596.402-1.156.915-1.488 1.602-.513 1.058-.415 2.348-.303 3.552l.31 3.336c.12 1.28.343 2.75 1.333 3.403.526.347 1.196.397 1.652.851.573.57.576 1.46.631 2.211.032.429.017.837.214 1.184z"/></g></g></g><g><g><path fill="#3b455a" d="M216.315 62.8c.065.101.12.207.164.319.23.581.12 1.254.346 1.838.357.926 1.478 1.443 1.685 2.413.17.794-.344 1.577-.355 2.389-.012.886.59 1.698.54 2.575-.044.761-.479 1.848-.905 2.475.132-.195 1.404-.182 1.725-.398.49-.33.54-.526.667-1.058.127-.529-.01-1.038.198-1.582.257-.669.822-1.176.996-1.884.239-.966-.312-1.952-.316-2.947-.004-1.507 1.235-2.98.7-4.39-.312-.827-1.15-1.328-1.64-2.063-.373-.559-.53-1.23-.799-1.844-.268-.616-.71-1.224-1.36-1.386-.363-.09-.745-.03-1.115-.083-.638-.09-1.183-.504-1.802-.685-.886-.257-2.387.692-2.865 1.454-.473.756-.192 1.369.353 1.996.908 1.044 3.019 1.662 3.783 2.86z"/></g></g></g><g><g><path fill="#3b455a" d="M204.37 58.863c-.508.406-1.141.711-1.6 1.18-.893.915-1.01 2.32-.988 3.599.019 1.138-.435 2.17-.26 3.35.116.792.49 1.582 1.157 2.024.832.55 2.102.591 2.502 1.505.434.992-.556 2.308.116 3.158.371.469 1.06.51 1.575.813.575.339.89.974 1.256 1.531.366.558.903 1.109 1.57 1.094-.017-1.014-.021-1.818-.494-2.726-.276-.529-1.06-1.492-.516-2.101.339-.502 1.18-.696 1.177-1.301-.002-.284-.21-.517-.377-.747-.644-.892-.758-2.111-.393-3.148.366-1.037 1.175-1.887 2.143-2.409 1.135-.61.936-.886 1.225-2.01.266-1.033.834-1.298 1.738-1.71.81-.37 1.066-.589 1.338-1.374.198-.575.443-1.263.093-1.88-.279-.49-.756-.829-1.219-1.151-.966-.673-2.05-1.377-3.22-1.242-.65.075-1.25.407-1.9.473-.434.043-.87-.035-1.307-.03a3.468 3.468 0 0 0-2.1.734c-.586.472-.55.938-.859 1.586-.151.317-.386.564-.658.782z"/></g></g><g><g><path fill="#3b455a" d="M206.817 54.584c.083-.71-.03-1.627-.714-1.836-.375-.115-.783.046-1.17-.016-.825-.13-1.146-1.11-1.606-1.807-.069-.104-.15-.21-.266-.255-.167-.066-.351.006-.528.036-.81.134-1.463-.643-2.242-.9-.965-.32-2.133.325-2.377 1.31-.1.406-.061.835-.154 1.242-.376 1.65-2.733 2.446-2.72 4.137.008 1.143 1.172 2.188.783 3.263-.248.688-1.097 1.186-.967 1.905.084.462.594.758 1.063.731.47-.027.89-.303 1.23-.627.541-.515.937-1.163 1.45-1.705.513-.543 1.208-.995 1.952-.934.72.058 1.393.588 2.1.438.566-.12.967-.646 1.52-.814.518-.156 1.071.026 1.612.035.54.01 1.191-.3 1.182-.84-.002-.132-.044-.266-.008-.392.1-.353.695-.359.794-.713-.301-.422-.691-.25-.918-.807-.175-.432-.069-1.004-.016-1.45z"/></g></g></g></g><g><g><path fill="#7fc5a3" d="M203.088 100.087c.01.65-.12 3.442.921 3.51 5.174.331 10.256-1.7 15.297-2.52 1.311-.214 2.636-.364 3.966-.383 1.197-.018 2.301.533 2.624-.735.321-1.259.095-2.931.103-4.23.016-2.792-.325-5.338.321-8.07a29.749 29.749 0 0 1 3.097-7.872c.14-.247.288-.502.311-.785.037-.452-.238-.944-.356-1.372-.183-.665-.286-1.36-.448-2.031a52.77 52.77 0 0 0-1.082-3.834c-.792.63-1.679 1.14-2.62 1.51-1.468.575-3.043.808-4.51 1.38-.755.294-1.327.803-2.03 1.153-.665.331-1.391.317-1.779 1.097-.311.628-.061 1.97-.067 2.665-.007.913-.016 1.826-.173 2.729-.2 1.152-.75 2.517-1.914 2.632-.748.074-1.43-.436-1.917-1.008-1.331-1.564-1.124-3.585-2.093-5.25-.192-.33-.98-1.559-1.257-1.673-.611-.252-2.464.923-3.08 1.188-1.604.692-3.077 1.241-4.53 2.282-1.43 1.025-2.73 2.225-3.938 3.502a48.82 48.82 0 0 0-3.021 3.501c-1.04 1.33.132 1.98 1.053 3.021a30.551 30.551 0 0 0 2.006 2.063c.576.54 1.32 1.44 2.047 1.761.974.43 2.023-.638 2.664-1.254-.273.263.403 2.557.455 3.052.136 1.292-.069 2.67-.05 3.971z"/></g></g></g><g><g><g><path fill="#3b455a" d="M234.382 177.53c-.073-2.2-.184-4.403-.298-6.605-.198-3.817-.383-7.57-.772-11.363-1.2-11.688-1.683-23.496-2.517-35.217 0-3.469-.042-7.11-.774-10.517-.042-.19-.088-.385-.19-.552-.336-.55-1.105-.591-1.749-.564-2.522.107-5.161.652-7.662.591-2.81-.068-5.784-.31-8.689-.147-1.994.112-4.01-.641-6.046-.262-.992.184-.964 1.017-1.131 1.987-.181 1.05-.241 2.118-.291 3.18-.09 1.908-.143 3.817-.16 5.727-.044 4.728.692 9.498.927 14.224.246 4.954.457 9.91.644 14.865.236 6.275 1.135 12.514 1.91 18.714.275 2.19.553 4.382.87 6.563.099.682.116 1.79.403 2.387.56 1.167 2.053 1.039 2.983.897.81-.124 1.614-.325 2.402-.603-.3-8.654.606-17.443.566-26.158-.027-5.792.621-11.553 1.213-17.306.11-1.072.192-2.2.425-3.252.221-1.001.626-1.956.793-2.985.183-1.123 1.08-1.193 1.487-.218.518 1.248.707 2.76 1.045 4.071 1.746 6.752 3.763 13.405 4.907 20.366 1.412 8.6 3.701 17.128 4.866 25.708.766.153 1.533.228 2.293.226.872-.003 2.257-.105 2.574-1.342.162-.632-.006-1.728-.029-2.415z"/></g></g><g><g><path fill="#343f51" d="M229.917 113.807c0-.488-.979-1.327-1.193-1.797-.242-.528-.452-1.056-.732-1.577-.015-.027-.03-.054-.054-.072-.091-.067-.204.042-.288.117-.296.264-1.083.09-1.452.094l-1.905.018-3.69.035c-4.939.048-9.825.321-14.758.015-.196.493-.895 2.181-.597 2.681.11.183.296.147.515.169.506.05 1.019.058 1.527.08 1.648.07 3.297.113 4.945.153 4.073.1 8.147.167 12.22.189.314.002 5.462.071 5.462-.105z"/></g></g></g></g><g><g><g><g><path fill="#474ebb" d="M167.785 166.856c2.084 1.453 16.332 20.346 16.332 20.346l-8.166 6.274-33.79-7.039v-6.271l12.955-1.011s-9.44-1.38-12.006-7.645c-2.566-6.266 24.675-4.654 24.675-4.654z"/></g></g><g><g><path fill="#3b455a" d="M138.077 182.83c-.71 1.89-1.439 4.396-.865 6.5.637 2.333 4.274 3.96 5.264 1.035.19-.564.14-1.25-.28-1.672-.895-.896-1.645-1.881.047-2.48.627-.222 1.315-.193 1.96-.351.225-.055.454-.139.604-.314.19-.22.215-.535.224-.826a20.424 20.424 0 0 0-.168-3.318c-.044-.337-3.23-.613-3.56-.577-1.202.127-2.767.785-3.226 2.004z"/></g></g><g><g><path fill="#474ebb" d="M173.603 178.126l12.456 7.068 3.281-2.67v-3.11l-15.737-12.558-9.49 10.285z"/></g></g></g><g><g><g><g><path fill="#7fc5a3" d="M157.068 126.262a7.017 7.017 0 0 1 1.128-.574c6.557-2.59 11.362.334 13.476 6.672 4.739 14.208 5.43 27.208 2.197 41.573-7.379.431-16.157.754-23.523.149-2.617-.216-5.482-.619-7.236-2.572-.782-.871-1.259-1.971-1.65-3.074-2.498-7.036-1.984-14.94.623-21.937 2.607-6.996 7.197-13.133 12.599-18.287.743-.71 1.518-1.411 2.386-1.95z"/></g></g><g><g><g><g><path fill="#efbfa5" d="M172.535 111.989c-3.413.88-7.022-1.397-10.32-.073-2.143.861-3.617 3.154-3.99 5.504-.173 1.095-.131 2.248.315 3.225.29.634.74 1.172 1.245 1.63a7.152 7.152 0 0 0 2.31 1.397c.07.026-1.077 2.045-1.189 2.22.525.33.283 1.395.767 1.936.5.559 1.385.69 2.127.504.742-.186 1.372-.634 1.97-1.085.542-.409.258-3.174.816-3.307a7.503 7.503 0 0 0 1.392-.476c2.723-1.25 4.725-4.172 4.957-7.231.108-1.434-.141-2.85-.4-4.244z"/></g></g></g><g><g><path fill="#3b455a" d="M164.37 111.998a12.885 12.885 0 0 1 5.826 1.149c.623.283 1.237.623 1.692 1.134.675.755.935 1.82.902 2.85-.033 1.03-.335 2.04-.672 3.023.43.02.835-.215 1.196-.46 1.063-.724 2.217-1.67 2.869-2.803 1.183-2.056 1.235-3.52 3.25-4.993 1.67-1.222 3.798-.49 5.142-2.56 1.1-1.695.451-4.446-1.494-4.994a2.728 2.728 0 0 0-2.528.599c-.718.655-1.501 1.8-2.343 1.315-.336-.195-.484-.592-.657-.94-1.438-2.881-4.51-2.38-6.966-1.306-1.385.606-2.73 1.422-4.22 1.579-1.195.125-2.382-.19-3.58-.154-2 .058-3.951 1.136-5.192 2.747-1.39 1.806-2.104 4.405-1.168 6.467.47 1.034.768 2.12 1.077 3.212.107.379.943 1.92 1.266.685.25-.958.19-1.97.447-2.927.627-2.333 2.912-3.512 5.152-3.623z"/></g></g></g></g></g><g><g><g><g><g><g><path fill="#d34e4e" d="M199.314 133.85c-4.997-.437-11.3 2.244-12.823 6.572-1.479-4.342-9.134-7.046-14.135-6.655-13.196 1.03-17.737 15.952-12.195 26.027 2.982 5.422 7.284 10.171 11.982 14.439 3.934 3.574 14.09 11.163 14.12 11.137.032.026 10.264-7.469 14.234-11.006 4.74-4.224 9.09-8.933 12.127-14.327 5.644-10.023-.124-25.035-13.31-26.188z"/></g></g></g><g opacity=".12"><g opacity=".12"><g opacity=".12"><path fill="#000100" d="M209.77 161.07c-3.309 4.02-7.135 7.79-11.284 11.022-4.012 3.126-8.71 5.844-13.868 6.736-2.478.428-4.902.356-7.193-.19 4.19 3.318 8.746 6.711 8.767 6.694.03.026 10.263-7.468 14.233-11.006 4.74-4.224 9.09-8.933 12.128-14.327a16.779 16.779 0 0 0 1.93-5.591c-1.38 2.335-2.98 4.556-4.714 6.662z"/></g></g></g><g><g><g><path fill="#fff" d="M209.855 157.047l-10.364.219-3.68-13.837c-.177-.666-1.151-.62-1.36-.006l-8.144 24.018-.472 1.39-5.375-15.86-.862-2.543c-.174-.511-1.002-.717-1.289-.167l-4.004 7.675-11.597-.054c-.907-.004-.916 1.345-.007 1.349l12.034.056c.234 0 .502-.123.61-.332l3.432-6.577 5.515 16.272.862 2.543c.216.636 1.142.65 1.36.006l8.145-24.017.39-1.149 3.216 12.095a.71.71 0 0 0 .677.498l10.906-.23c.906-.02.917-1.369.007-1.35z"/></g></g></g></g></g></g><g><g><g><path fill="#efbfa5" d="M156.376 157.501c.812 2.179 1.99 4.107 3.809 5.426l4.523 3.28c.413.3.835.61 1.105 1.042.381.61.401 1.37.505 2.082.226 1.55 1.006 3.13 2.42 3.804 1.413.673 3.454.004 3.793-1.524-.65-.872-1.265-1.794-1.962-2.63-.377-.45-1.21-1.54.139-1.18.208.056.42.13.635.1.33-.045.585-.335.69-.652.102-.309.114-.655.048-.967-3.067-.057-6.445-3.032-8.108-5.405-4.448-6.346-2.664-14.4-4.154-21.528-.3-1.437-.859-2.9-1.992-3.835s-2.959-1.144-4.03-.139c-1.15 1.078-.982 2.914-.727 4.469l1.098 6.693c.543 3.31.902 7.46 2.208 10.964z"/></g></g><g><g><path fill="#7fc5a3" d="M151.44 135.756a40.432 40.432 0 0 0-.115 9.103 94.79 94.79 0 0 1 10.973-.994 68.86 68.86 0 0 0-1.675-9.482c-.57-2.282-2.559-3.493-4.924-3.399-2.605.104-3.971 2.483-4.26 4.772z"/></g></g></g><g><g><path fill="#efbfa5" d="M178.855 134.822c.191-.02.406-.034.553.09.148.121.174.335.175.526a3.698 3.698 0 0 1-.666 2.124c-.1.143-.217.307-.176.476.044.178.238.268.409.334l1.343.512c.09.034.186.069.28.052.123-.022.212-.123.292-.218.622-.743 1.26-1.516 1.522-2.448.26-.933.036-2.076-.78-2.598-1.33-.852-5.509-1.405-5.616.994.788.42 1.81.242 2.664.156z"/></g></g></g></g></g></g></svg>