<svg xmlns="http://www.w3.org/2000/svg" width="42" height="35" viewBox="0 0 42 35"><g><g><path fill="#fff" d="M21.033 1.673a.795.795 0 0 1 0 1.59.796.796 0 0 1 0-1.59zm0 3.263A2.47 2.47 0 0 0 23.5 2.468 2.47 2.47 0 0 0 21.033 0a2.47 2.47 0 0 0-2.468 2.468 2.47 2.47 0 0 0 2.468 2.468zm-6.728 3.879a.795.795 0 1 1 0 1.59.795.795 0 0 1 0-1.59zm0 3.262a2.47 2.47 0 0 0 2.468-2.468 2.47 2.47 0 0 0-2.468-2.467 2.47 2.47 0 0 0-2.468 2.467 2.47 2.47 0 0 0 2.468 2.468zm13.456-3.262a.796.796 0 1 1-.002 1.59.796.796 0 0 1 .002-1.59zm0 3.262a2.47 2.47 0 0 0 2.467-2.468 2.47 2.47 0 0 0-2.467-2.467 2.47 2.47 0 0 0-2.469 2.467 2.47 2.47 0 0 0 2.468 2.468zm-6.728 22.751c.175.014.616.042 1.257.042 2.21 0 6.795-.336 11.006-2.763 5.234-3.018 7.952-8.146 8.447-9.149l.154-.21-.053-.008a.83.83 0 0 0-.7-1.12c-.16-.015-3.218-.278-6.97.62h-1.01a23.83 23.83 0 0 0 .89-2.915l.11-.24v-.236c.847-3.891.582-6.994.564-7.19a.829.829 0 0 0-1.175-.677c-.194.089-4.322 2.019-7.845 6-1.002-5.606-3.85-9.687-3.996-9.892a.83.83 0 0 0-1.358 0c-.146.205-2.993 4.284-3.995 9.888l-.027-.026c-3.518-3.961-7.625-5.881-7.82-5.97a.833.833 0 0 0-1.176.678c-.021.25-.449 5.253 1.565 10.58H7.892c-3.753-.898-6.81-.635-6.969-.62a.83.83 0 0 0-.678 1.173c.112.245 2.83 6.03 8.525 9.314 4.211 2.428 8.795 2.763 11.006 2.763.64 0 1.081-.028 1.257-.042z"/></g></g></svg>