<svg xmlns="http://www.w3.org/2000/svg" width="18" height="16" viewBox="0 0 18 16"><g><g><g><g><g><path fill="#fff" d="M14.042 13.334c-1.255.723-2.622.98-3.6 1.064.98-.655 2.337-1.774 3.274-3.393.058-.102.114-.204.168-.306 1.31-.498 2.592-.59 3.3-.596-.458.776-1.502 2.285-3.142 3.23zm-2.788-4.3c0-.225-.009-.448-.025-.666 1.05-1.374 2.386-2.263 3.095-2.674-.002.977-.148 3.071-1.234 4.95-.852 1.473-2.112 2.514-3.024 3.131.538-1.083 1.188-2.794 1.188-4.74zm-2.182 5.06c-.5-.866-1.46-2.82-1.46-5.06 0-2.24.96-4.194 1.46-5.06.5.866 1.46 2.82 1.46 5.06 0 2.24-.96 4.194-1.46 5.06zm-4.019-3.45C3.97 8.77 3.823 6.674 3.82 5.694c.709.411 2.044 1.3 3.094 2.674-.016.219-.025.44-.025.666 0 1.948.65 3.66 1.189 4.743-.911-.615-2.17-1.656-3.025-3.133zm-.952 2.69c-1.64-.946-2.685-2.456-3.143-3.232.708.006 1.988.098 3.301.597.054.102.11.204.168.306.937 1.62 2.295 2.738 3.273 3.393-.977-.084-2.344-.34-3.599-1.064zm13.993-3.755a.361.361 0 0 0-.28-.18c-.075-.006-1.671-.144-3.518.4.932-2.363.74-4.62.73-4.73a.36.36 0 0 0-.511-.294c-.085.039-1.88.877-3.411 2.609-.436-2.438-1.674-4.212-1.737-4.301a.362.362 0 0 0-.59 0c-.064.09-1.302 1.863-1.738 4.3-1.532-1.73-3.327-2.57-3.41-2.608a.362.362 0 0 0-.512.294c-.01.11-.203 2.367.73 4.73C2 9.255.404 9.393.328 9.4a.361.361 0 0 0-.295.511c.05.106 1.23 2.621 3.707 4.049 1.83 1.056 3.824 1.201 4.785 1.201.278 0 .47-.012.546-.018.077.006.268.018.547.018.961 0 2.954-.146 4.785-1.201 2.476-1.428 3.658-3.943 3.707-4.049a.36.36 0 0 0-.016-.331z"/></g></g></g><g><g><g><path fill="#fff" d="M6.147 4.523a.346.346 0 1 1 0-.691.346.346 0 0 1 0 .691zm0-1.418a1.074 1.074 0 0 0 0 2.146 1.074 1.074 0 0 0 0-2.146z"/></g></g></g><g><g><g><path fill="#fff" d="M11.996 4.523a.346.346 0 1 1 .001-.691.346.346 0 0 1 0 .691zm0-1.418a1.074 1.074 0 0 0 0 2.146 1.074 1.074 0 0 0 0-2.146z"/></g></g></g><g><g><g><path fill="#fff" d="M9.071 1.419a.346.346 0 1 1 .001-.692.346.346 0 0 1 0 .692zm0-1.419a1.074 1.074 0 0 0 0 2.146 1.074 1.074 0 0 0 0-2.146z"/></g></g></g><g><g><g><path fill="#fff" d="M9.434 11.562a.364.364 0 0 0-.463.223 3.721 3.721 0 0 1-.075.199.364.364 0 1 0 .67.285c.003-.01.039-.094.091-.244a.364.364 0 0 0-.223-.463z"/></g></g></g><g><g><g><path fill="#fff" d="M10.142 8.824a.364.364 0 0 0-.727.023c.02.621-.035 1.26-.163 1.898a.364.364 0 1 0 .713.143c.139-.693.198-1.387.177-2.064z"/></g></g></g></g></g></svg>