<svg xmlns="http://www.w3.org/2000/svg" width="78" height="53" viewBox="0 0 78 53"><g><g><g><path fill="#fff" fill-opacity=".36" d="M75.043 4.786A8.911 8.911 0 0 0 68.7 2.16c-2.396 0-4.649.933-6.343 2.627-3.497 3.498-3.498 9.19 0 12.687A8.911 8.911 0 0 0 68.7 20.1a8.911 8.911 0 0 0 6.344-2.627c3.497-3.498 3.497-9.189 0-12.687z"/></g><g><path fill="#fff" fill-opacity=".36" d="M36.24 50.825L21.528 32.962a109.36 109.36 0 0 1-1.16-1.439L2.465 8.856c-.024-.031-.019-.126.01-.154l5.4-5.4 16.988 20.592a39.93 39.93 0 0 0 1.265 1.445l14.99 16.15-.93.01a2.847 2.847 0 0 0-2.804 2.817l-.003.423c-.008 1.319.918 2.487 2.155 2.834zM56.1 33.778l-1.125 6.489c-.1.572-.696 1.08-1.277 1.086l-5.272.057zm7.593-11.322c-.03-.032-.057-.066-.088-.097l-7.737-7.737a2.782 2.782 0 0 0-1.981-.819c-.75 0-1.454.29-1.981.819L34.7 31.827l-7.201-7.758c-.335-.36-.882-.985-1.194-1.364L9.256 2.041a1.779 1.779 0 0 0-1.373-.656c-.46 0-.897.18-1.235.505l-.706-.705a1.855 1.855 0 0 0-1.32-.546c-.5 0-.969.193-1.321.546L.546 3.94A1.854 1.854 0 0 0 0 5.26c0 .5.194.97.546 1.321l.704.704-.095.096c-.7.7-.768 1.856-.154 2.633L18.9 32.68c.33.416.86 1.075 1.185 1.469l14.768 17.93c.345.418.847.657 1.379.657.47 0 .916-.185 1.257-.521l4.478-4.417 15.301 1.044c.065.004.13.006.194.006 1.442 0 2.733-1.061 3.003-2.469l4.1-21.333a2.761 2.761 0 0 0-.873-2.59z"/></g></g></g></svg>