<svg xmlns="http://www.w3.org/2000/svg" width="27" height="23" viewBox="0 0 27 23"><g><g><g><g><g><path fill="#46d444" d="M20.381 20.207c-1.822 1.05-3.806 1.422-5.224 1.544 1.42-.95 3.391-2.574 4.75-4.925.086-.147.167-.295.245-.444 1.9-.722 3.762-.856 4.79-.865-.665 1.126-2.18 3.317-4.561 4.69zm-4.046-6.241c0-.327-.013-.65-.037-.967 1.524-1.994 3.464-3.285 4.492-3.88-.002 1.418-.214 4.456-1.791 7.183-1.236 2.138-3.065 3.65-4.388 4.545.78-1.571 1.724-4.055 1.724-6.881zm-3.168 7.344c-.726-1.257-2.12-4.093-2.12-7.344 0-3.251 1.394-6.088 2.12-7.345.726 1.258 2.119 4.094 2.119 7.345 0 3.251-1.394 6.087-2.12 7.344zm-5.832-5.008c-1.573-2.72-1.787-5.763-1.79-7.183 1.028.596 2.967 1.886 4.49 3.88-.023.317-.036.64-.036.967 0 2.828.944 5.313 1.725 6.884-1.322-.893-3.15-2.404-4.39-4.548zm-1.382 3.905c-2.382-1.373-3.898-3.565-4.562-4.69 1.026.007 2.884.14 4.79.865.079.149.16.297.245.444 1.36 2.35 3.33 3.974 4.75 4.925-1.417-.122-3.402-.494-5.223-1.544zm20.31-5.451a.525.525 0 0 0-.406-.26c-.11-.01-2.427-.21-5.108.58 1.354-3.43 1.075-6.704 1.06-6.865a.524.524 0 0 0-.742-.427c-.122.056-2.727 1.273-4.95 3.786-.633-3.538-2.43-6.113-2.522-6.243a.525.525 0 0 0-.857 0c-.092.13-1.889 2.705-2.521 6.243-2.224-2.513-4.829-3.73-4.95-3.786a.525.525 0 0 0-.743.427c-.014.16-.294 3.435 1.06 6.866-2.681-.79-4.998-.59-5.108-.58a.525.525 0 0 0-.428.74c.071.154 1.786 3.805 5.38 5.877 2.658 1.532 5.55 1.744 6.946 1.744.404 0 .682-.018.793-.027.11.009.388.027.793.027 1.395 0 4.288-.212 6.945-1.744 3.595-2.072 5.309-5.723 5.38-5.877a.523.523 0 0 0-.022-.481z"/></g></g></g><g><g><g><path fill="#46d444" d="M8.921 7.419a.502.502 0 1 1 .002-1.004.502.502 0 0 1-.002 1.004zm0-2.059a1.56 1.56 0 0 0-1.557 1.557 1.56 1.56 0 0 0 1.557 1.558 1.56 1.56 0 0 0 1.558-1.558A1.56 1.56 0 0 0 8.92 5.36z"/></g></g></g><g><g><g><path fill="#46d444" d="M17.412 7.419a.502.502 0 1 1 .001-1.004.502.502 0 0 1 0 1.004zm0-2.059a1.56 1.56 0 0 0-1.557 1.557 1.56 1.56 0 0 0 1.557 1.558 1.56 1.56 0 0 0 1.557-1.558 1.56 1.56 0 0 0-1.557-1.557z"/></g></g></g><g><g><g><path fill="#46d444" d="M13.167 2.912a.502.502 0 1 1 .001-1.004.502.502 0 0 1-.001 1.004zm0-2.058c-.859 0-1.557.698-1.557 1.557a1.56 1.56 0 0 0 1.557 1.557 1.56 1.56 0 0 0 1.557-1.557A1.56 1.56 0 0 0 13.167.854z"/></g></g></g><g><g><g><path fill="#46d444" d="M13.693 17.635a.528.528 0 0 0-.673.323 5.437 5.437 0 0 1-.108.289.528.528 0 1 0 .971.413c.006-.013.058-.135.134-.353a.528.528 0 0 0-.324-.672z"/></g></g></g><g><g><g><path fill="#46d444" d="M14.72 13.66a.528.528 0 0 0-1.055.035c.029.9-.05 1.828-.237 2.754a.528.528 0 1 0 1.035.208c.202-1.006.289-2.014.257-2.996z"/></g></g></g></g></g></svg>