<svg xmlns="http://www.w3.org/2000/svg" width="75" height="63" viewBox="0 0 75 63"><g><g><g><g><g><path fill="#c3cbce" d="M57.426 55.363c-5.133 2.96-10.724 4.008-14.719 4.353 4.001-2.68 9.555-7.255 13.384-13.878.24-.415.469-.832.689-1.25 5.356-2.035 10.6-2.412 13.497-2.437-1.873 3.172-6.144 9.346-12.851 13.212zm-11.4-17.584c0-.922-.038-1.83-.104-2.724 4.294-5.62 9.759-9.256 12.657-10.934-.005 3.996-.604 12.557-5.047 20.241-3.483 6.023-8.635 10.283-12.364 12.806 2.199-4.428 4.857-11.426 4.857-19.389zm-8.927 20.694c-2.045-3.542-5.97-11.533-5.97-20.694 0-9.16 3.925-17.152 5.97-20.694 2.045 3.542 5.97 11.534 5.97 20.694 0 9.16-3.925 17.153-5.97 20.694zm-16.432-14.11c-4.431-7.664-5.036-16.239-5.045-20.24 2.9 1.679 8.362 5.314 12.654 10.932a36.701 36.701 0 0 0-.103 2.724c0 7.968 2.662 14.97 4.861 19.398-3.725-2.518-8.875-6.774-12.367-12.814zm-3.895 11C10.062 51.495 5.792 45.32 3.92 42.148c2.892.023 8.127.399 13.5 2.44.22.418.447.835.687 1.25 3.83 6.623 9.384 11.198 13.385 13.878-3.995-.345-9.586-1.393-14.719-4.353zM74 40.005a1.478 1.478 0 0 0-1.145-.731c-.31-.029-6.837-.591-14.392 1.635 3.816-9.667 3.028-18.893 2.986-19.344a1.475 1.475 0 0 0-2.09-1.205c-.344.158-7.684 3.589-13.948 10.669-1.782-9.968-6.846-17.224-7.106-17.59a1.479 1.479 0 0 0-2.413 0c-.26.366-5.324 7.622-7.106 17.59-6.264-7.08-13.603-10.51-13.948-10.669a1.48 1.48 0 0 0-2.09 1.205c-.042.451-.83 9.678 2.986 19.344-7.555-2.226-14.082-1.664-14.392-1.635A1.478 1.478 0 0 0 .136 41.36c.2.435 5.03 10.72 15.158 16.558 7.489 4.318 15.64 4.914 19.57 4.914 1.139 0 1.923-.05 2.235-.074.312.024 1.095.074 2.234.074 3.932 0 12.082-.596 19.57-4.914 10.128-5.837 14.958-16.123 15.159-16.558.2-.435.177-.94-.062-1.356z"/></g></g></g><g><g><g><path fill="#c3cbce" d="M25.137 19.332a1.415 1.415 0 0 1-1.413-1.413c0-.78.634-1.413 1.413-1.413s1.413.634 1.413 1.413-.634 1.413-1.413 1.413zm0-5.801a4.393 4.393 0 0 0-4.388 4.388 4.393 4.393 0 0 0 4.388 4.388 4.393 4.393 0 0 0 4.388-4.388 4.393 4.393 0 0 0-4.388-4.388z"/></g></g></g><g><g><g><path fill="#c3cbce" d="M49.06 19.332a1.415 1.415 0 0 1-1.412-1.413c0-.78.634-1.413 1.413-1.413s1.413.634 1.413 1.413-.634 1.413-1.413 1.413zm0-5.801a4.393 4.393 0 0 0-4.387 4.388 4.393 4.393 0 0 0 4.388 4.388 4.393 4.393 0 0 0 4.388-4.388 4.393 4.393 0 0 0-4.388-4.388z"/></g></g></g><g><g><g><path fill="#c3cbce" d="M37.099 6.634a1.415 1.415 0 0 1-1.413-1.413c0-.78.634-1.413 1.413-1.413.78 0 1.413.634 1.413 1.413s-.634 1.413-1.413 1.413zm0-5.801a4.393 4.393 0 0 0-4.388 4.388A4.393 4.393 0 0 0 37.1 9.609a4.393 4.393 0 0 0 4.388-4.388A4.393 4.393 0 0 0 37.099.833z"/></g></g></g><g><g><g><path fill="#c3cbce" d="M38.582 48.116a1.488 1.488 0 0 0-1.896.913c-.182.521-.304.811-.305.812a1.487 1.487 0 1 0 2.737 1.166c.016-.037.161-.381.376-.995a1.487 1.487 0 0 0-.912-1.896z"/></g></g></g><g><g><g><path fill="#c3cbce" d="M41.476 36.92a1.488 1.488 0 0 0-2.974.095 33.97 33.97 0 0 1-.666 7.76 1.487 1.487 0 1 0 2.917.586c.568-2.834.812-5.674.723-8.441z"/></g></g></g></g></g></svg>