<svg xmlns="http://www.w3.org/2000/svg" width="43" height="42" viewBox="0 0 43 42"><g><g><g><path fill="none" stroke="#fff" stroke-miterlimit="50" stroke-width="2" d="M40.878 17.128v0l-5.448-3.76v0l-.53-6.572a1.242 1.242 0 0 0-.445-.867 1.338 1.338 0 0 0-.933-.296l-6.593.613v0l-4.642-4.69a1.321 1.321 0 0 0-.912-.381c-.339 0-.657.127-.911.38L15.82 6.246v0l-6.593-.613c-.339-.02-.678.064-.932.296a1.241 1.241 0 0 0-.446.867l-.53 6.571v0l-5.448 3.761c-.275.19-.466.486-.53.825-.063.338.022.676.212.95l3.816 5.368v0l-1.76 6.36c-.084.317-.042.676.128.972.17.296.445.507.784.591l6.402 1.67v0l2.756 6c.148.318.403.55.72.656.319.127.68.106.976-.042l5.978-2.832v0l5.978 2.832a1.24 1.24 0 0 0 .996.042c.318-.106.573-.36.721-.655l2.756-6.001v0l6.402-1.67c.339-.084.615-.295.784-.591.17-.296.212-.634.127-.972l-1.76-6.36v0l3.838-5.389c.19-.274.275-.613.212-.95a1.168 1.168 0 0 0-.53-.804z"/></g></g><g><g><path fill="none" stroke="#fff" stroke-linecap="round" stroke-miterlimit="50" stroke-width="2" d="M14.5 22.5l6 6"/></g><g><path fill="none" stroke="#fff" stroke-linecap="round" stroke-miterlimit="50" stroke-width="2" d="M29.417 14.5l-8.917 14"/></g></g></g></svg>