<svg xmlns="http://www.w3.org/2000/svg" width="25" height="24" viewBox="0 0 25 24"><g><g><path fill="#c3cbce" d="M17.297 14.454a.853.853 0 0 0-.27.842l1.426 6.123-5.38-3.254a.837.837 0 0 0-.443-.128.801.801 0 0 0-.442.128l-5.38 3.254 1.426-6.122a.854.854 0 0 0-.27-.843l-4.754-4.11 6.266-.528a.854.854 0 0 0 .714-.514l2.44-5.809 2.44 5.795c.13.3.4.5.715.514l6.265.528zm6.923-5.652l-7.779-.656L13.415.953a.856.856 0 0 0-.785-.529c-.342 0-.656.2-.785.529L8.82 8.146l-7.778.656a.844.844 0 0 0-.742.586.88.88 0 0 0 .257.913l5.894 5.095-1.77 7.593a.87.87 0 0 0 .329.885c.285.2.656.214.942.043l6.68-4.039 6.679 4.04a.837.837 0 0 0 .442.128.9.9 0 0 0 .5-.157.83.83 0 0 0 .328-.885l-1.77-7.593 5.895-5.096c.257-.228.357-.585.257-.913a.84.84 0 0 0-.742-.6z"/></g></g></svg>