<svg xmlns="http://www.w3.org/2000/svg" width="64" height="64" viewBox="0 0 64 64"><g><g><g><g><path fill="#46d444" d="M32.555 48.73c-9.56 0-17.337-7.778-17.337-17.339 0-9.558 7.779-17.337 17.337-17.337S49.89 21.832 49.89 31.39c0 9.561-7.777 17.338-17.336 17.338zM52.559 31.39c0-11.031-8.974-20.004-20.004-20.004-11.03 0-20.005 8.973-20.005 20.004 0 11.03 8.974 20.003 20.005 20.003 11.03 0 20.004-8.972 20.004-20.003z"/></g><g><path fill="#46d444" d="M9.163 32.169v-.334c0-1.472-1.16-2.39-2.595-2.051l-5.144 1.214c-1.434.34-1.457.97-.05 1.41l5.243 1.633c1.406.438 2.546-.4 2.546-1.872z"/></g><g><path fill="#46d444" d="M62.626 31.594l-5.244-1.633c-1.406-.438-2.546.401-2.546 1.873v.334c0 1.47 1.162 2.39 2.595 2.051l5.145-1.215c1.434-.34 1.457-.97.05-1.41z"/></g><g><path fill="#46d444" d="M10.599 39.966l-.116-.313c-.502-1.381-1.909-1.847-3.141-1.04l-4.417 2.902c-1.233.808-1.037 1.41.435 1.34l5.486-.26c1.47-.066 2.254-1.246 1.753-2.63z"/></g><g><path fill="#46d444" d="M53.401 24.034l.116.312c.502 1.385 1.909 1.853 3.141 1.042l4.417-2.9c1.233-.81 1.038-1.41-.435-1.34l-5.486.255c-1.47.068-2.256 1.246-1.753 2.63z"/></g><g><path fill="#46d444" d="M14.4 46.553c-.947-1.129-2.429-1.086-3.308.095l-3.158 4.24c-.88 1.182-.492 1.677.866 1.108l5.068-2.12c1.358-.566 1.692-1.941.745-3.07z"/></g><g><path fill="#46d444" d="M49.602 17.45c.948 1.129 2.428 1.086 3.306-.095l3.16-4.24c.88-1.182.49-1.677-.87-1.11l-5.065 2.119c-1.357.567-1.694 1.942-.747 3.071z"/></g><g><path fill="#46d444" d="M20.726 51.86l-.288-.165c-1.275-.738-2.652-.19-3.076 1.22l-1.518 5.066c-.423 1.412.112 1.745 1.195.747l4.039-3.725c1.081-.999.924-2.406-.352-3.144z"/></g><g><path fill="#46d444" d="M43.274 12.14l.288.166c1.275.738 2.652.19 3.075-1.221l1.52-5.063c.423-1.412-.113-1.745-1.197-.748l-4.037 3.723c-1.082 1-.925 2.406.35 3.143z"/></g><g><path fill="#46d444" d="M28.198 54.516l-.328-.055c-1.452-.257-2.557.728-2.472 2.2l.305 5.276c.084 1.47.702 1.602 1.377.292l2.522-4.88c.676-1.307.048-2.576-1.404-2.833z"/></g><g><path fill="#46d444" d="M35.802 9.482l.328.057c1.453.257 2.559-.729 2.475-2.2l-.308-5.277c-.083-1.471-.7-1.603-1.377-.293l-2.52 4.88c-.678 1.308-.05 2.576 1.402 2.833z"/></g><g><path fill="#46d444" d="M36.127 54.462l-.328.058c-1.451.257-2.153 1.562-1.57 2.914l2.092 4.853c.584 1.354 1.208 1.266 1.396-.196l.697-5.45c.188-1.46-.835-2.436-2.287-2.179z"/></g><g><path fill="#46d444" d="M27.871 9.537l.328-.056c1.452-.257 2.154-1.561 1.572-2.914l-2.093-4.855C27.096.36 26.47.447 26.283 1.908l-.699 5.449c-.188 1.46.836 2.437 2.287 2.18z"/></g><g><path fill="#46d444" d="M46.457 52.963c-.325-1.438-1.621-2.006-2.895-1.268l-.288.166c-1.274.738-1.49 2.202-.481 3.274l3.627 3.848c1.009 1.072 1.566.776 1.242-.663z"/></g><g><path fill="#46d444" d="M17.542 11.034c.324 1.438 1.62 2.006 2.896 1.27l.287-.168c1.275-.735 1.49-2.201.48-3.273L17.58 5.016c-1.01-1.071-1.567-.775-1.244.662z"/></g><g><path fill="#46d444" d="M52.753 46.753c-.794-1.24-2.208-1.33-3.153-.202l-.212.256c-.948 1.128-.646 2.579.67 3.242l4.721 2.374c1.315.66 1.74.192.943-1.05z"/></g><g><path fill="#46d444" d="M11.244 17.246c.795 1.24 2.207 1.33 3.155.201l.213-.256c.947-1.127.647-2.579-.67-3.24l-4.72-2.377c-1.316-.662-1.739-.192-.943 1.048z"/></g><g><path fill="#46d444" d="M60.915 42.092l-4.366-3.328c-1.172-.893-2.53-.493-3.034.89l-.114.312c-.503 1.383.276 2.644 1.737 2.817l5.25.615c1.46.173 1.7-.412.527-1.306z"/></g><g><path fill="#46d444" d="M3.081 21.905l4.366 3.328c1.173.893 2.53.494 3.033-.89l.116-.312c.503-1.385-.275-2.645-1.738-2.819l-5.25-.614c-1.462-.172-1.7.413-.527 1.307z"/></g></g></g></g></svg>