<svg xmlns="http://www.w3.org/2000/svg" width="60" height="65" viewBox="0 0 60 65"><g><g><g><g><g><path fill="#c3cbce" d="M28.317 45.454a9.41 9.41 0 0 1 2.593-.498c.04-.002.08-.006.12-.012h7.933a3.687 3.687 0 0 1 3.682 3.682v7.892a5.321 5.321 0 0 1-5.315 5.316 5.324 5.324 0 0 1-5.111-3.859 1.158 1.158 0 0 0-.043-.154 5.312 5.312 0 0 1-.162-1.303v-5.765c0-1.65-.813-3.173-2.175-4.074a10.416 10.416 0 0 1-1.522-1.225zm-3.094-6.28h20.629a10.422 10.422 0 0 1-2.366 5.513 5.988 5.988 0 0 0-4.523-2.063h-8.109c-.081 0-.16.009-.237.025-1.32.084-2.63.401-3.847.92a10.346 10.346 0 0 1-1.547-4.395zM30 .06C13.642.06.333 13.368.333 29.726.333 46.085 13.642 59.393 30 59.393l.258-.003c1.137 2.79 3.878 4.763 7.072 4.763 4.21 0 7.635-3.425 7.635-7.635v-7.892c0-.63-.098-1.236-.279-1.807a12.735 12.735 0 0 0 3.55-8.805c0-.64-.519-1.16-1.16-1.16H24c-.64 0-1.16.52-1.16 1.16 0 4.282 2.137 8.248 5.716 10.608.026.017.053.03.08.045a2.551 2.551 0 0 1 1.06 2.085v5.766c0 .185.008.37.022.552-14.95-.153-27.065-12.36-27.065-27.344C2.652 14.647 14.921 2.38 30 2.38c15.08 0 27.347 12.268 27.347 27.347a27.34 27.34 0 0 1-6.633 17.856 1.16 1.16 0 0 0 1.756 1.515 29.66 29.66 0 0 0 7.197-19.37C59.667 13.367 46.358.06 30 .06z"/></g></g></g><g><g><g><path fill="#c3cbce" d="M45.125 26.183a5.287 5.287 0 0 1-5.28-5.28 5.287 5.287 0 0 1 5.28-5.281 5.287 5.287 0 0 1 5.28 5.28 5.287 5.287 0 0 1-5.28 5.281zm0-12.88c-4.19 0-7.6 3.409-7.6 7.6 0 4.19 3.41 7.6 7.6 7.6 4.19 0 7.6-3.41 7.6-7.6 0-4.191-3.41-7.6-7.6-7.6z"/></g></g></g><g><g><g><path fill="#c3cbce" d="M45.048 20.902a1.16 1.16 0 1 1 2.32 0 1.16 1.16 0 0 1-2.32 0z"/></g></g></g><g><g><g><path fill="#c3cbce" d="M29.722 22.357a6.54 6.54 0 0 0-5.708-3.356c-2.3 0-4.491 1.273-5.72 3.324a1.16 1.16 0 1 0 1.989 1.192c.812-1.355 2.242-2.197 3.731-2.197 1.527 0 2.938.83 3.682 2.165a1.159 1.159 0 1 0 2.026-1.128z"/></g></g></g><g><g><g><path fill="#c3cbce" d="M47.496 51.268a1.16 1.16 0 1 1 2.32 0 1.16 1.16 0 0 1-2.32 0z"/></g></g></g></g></g></svg>